# xmcd
#
# Track frame offsets:
# 150
# 14099
# 29257
# 41886
# 56290
# 70149
# 86923
# 105167
# 123838
# 140118
# 153244
# 172003
# 190335
# 205916
# 219896
# 238302
# 254198
# 269669
# 291465
# 309309
#
# Disc length: 4341 seconds
#
#
# Revision: 0
# Processed by: cddbd v1.4PL0 Copyright (c) Steve Scherf et al.
# Submitted via: FreeRIP 2.00 
#
DISCID=3610f314
DTITLE=Varios - Renatertúlia 4
DYEAR=1900
DGENRE=Pop
TTITLE0=Run to me
TTITLE1=Lay Lady Lay
TTITLE2=Don't say goodbye
TTITLE3=We don't say goodbye
TTITLE4=Puppy love
TTITLE5=Alone again (naturally)
TTITLE6=I'd love to want me
TTITLE7=Don't let me cry
TTITLE8=My life
TTITLE9=Listen
TTITLE10=My love
TTITLE11=Whiter shade of pale
TTITLE12=Summer Breeze
TTITLE13=The sound of Silence
TTITLE14=Summer Holliday
TTITLE15=Oh Girl
TTITLE16=Got to be there
TTITLE17=You make me feel brand new
TTITLE18=He
TTITLE19=Noi due per sempre
EXTD=
EXTT0=Bee Gees
EXTT1=Bob Dylan
EXTT2=Chrystian
EXTT3=Dave Mclean
EXTT4=Donny Osmund
EXTT5=Gilbert O'sullivan
EXTT6=Lobo
EXTT7=Mark Davis
EXTT8=Michael Sullivan
EXTT9=Paul Bryan
EXTT10=Paul MacCartney and The Wings
EXTT11=Procol Harum
EXTT12=Seals and Crofts
EXTT13=Simon and Garfunkel
EXTT14=Terry Winter
EXTT15=The Chi-lites
EXTT16=The Jacksons five
EXTT17=The stylistics
EXTT18=Todays people
EXTT19=Wess and Dori Guezzi
PLAYORDER=
